<svg width="256" height="256" viewBox="0 0 256 256" fill="none" xmlns="http://www.w3.org/2000/svg">
  <defs>
    <!-- 鲜红色扁平渐变背景 -->
    <linearGradient id="flatRed" x1="0" y1="0" x2="256" y2="256" gradientUnits="userSpaceOnUse">
      <stop offset="0%" stop-color="#FF5A5A"/>
      <stop offset="55%" stop-color="#E53935"/>
      <stop offset="100%" stop-color="#B71C1C"/>
    </linearGradient>
  </defs>

  <!-- 扁平圆角背景 -->
  <rect x="0" y="0" width="256" height="256" rx="46" fill="url(#flatRed)"/>

  <!-- 图标主体：高对比白色线条 -->
  <g
    stroke="#FFFFFF"
    stroke-width="18"
    stroke-linecap="round"
    stroke-linejoin="round"
    fill="none"
  >
    <path d="M112 139.88C112 139.88 138 166.88 165 149.17C178.74 140.17 246.09 61.75 246.09 61.75"/>
    <path d="M133.67 69.42L181.04 60.83"/>
    <path d="M178.88 8C160.21 34.67 133.66 69.44 133.66 69.44L124.75 28.83"/>

    <path d="M143.13 114.29C143.13 114.29 117.13 87.34 90.13 105C76.40 114 9.05 192.42 9.05 192.42"/>
    <path d="M121.45 184.75L74.08 193.34"/>
    <path d="M76.25 246.17C94.92 219.5 121.47 184.73 121.47 184.73L130.42 225.34"/>
  </g>
</svg>
