<svg xmlns="http://www.w3.org/2000/svg" version="1.1" xmlns:xlink="http://www.w3.org/1999/xlink" xmlns:svgjs="http://svgjs.dev/svgjs" width="1920" height="1080" preserveAspectRatio="none" viewBox="0 0 1920 1080"><g mask="url(&quot;#SvgjsMask1074&quot;)" fill="none"><rect width="1920" height="1080" x="0" y="0" fill="rgba(222, 223, 224, 1)"></rect><path d="M21 1080L1101 0L1716 0L636 1080z" fill="url(&quot;#SvgjsLinearGradient1075&quot;)"></path><path d="M738.6 1080L1818.6 0L2528.1 0L1448.1 1080z" fill="url(&quot;#SvgjsLinearGradient1075&quot;)"></path><path d="M1793 1080L713 0L254 0L1334 1080z" fill="url(&quot;#SvgjsLinearGradient1076&quot;)"></path><path d="M1178.4 1080L98.40000000000009 0L-0.599999999999909 0L1079.4 1080z" fill="url(&quot;#SvgjsLinearGradient1076&quot;)"></path><path d="M1200.6383301873457 1080L1920 360.63833018734556L1920 1080z" fill="url(&quot;#SvgjsLinearGradient1075&quot;)"></path><path d="M0 1080L719.3616698126544 1080L 0 360.63833018734556z" fill="url(&quot;#SvgjsLinearGradient1076&quot;)"></path></g><defs><mask id="SvgjsMask1074"><rect width="1920" height="1080" fill="#ffffff"></rect></mask><linearGradient x1="0%" y1="100%" x2="100%" y2="0%" id="SvgjsLinearGradient1075"><stop stop-color="rgba(79, 80, 81, 0.2)" offset="0"></stop><stop stop-opacity="0" stop-color="rgba(79, 80, 81, 0.2)" offset="0.66"></stop></linearGradient><linearGradient x1="100%" y1="100%" x2="0%" y2="0%" id="SvgjsLinearGradient1076"><stop stop-color="rgba(79, 80, 81, 0.2)" offset="0"></stop><stop stop-opacity="0" stop-color="rgba(79, 80, 81, 0.2)" offset="0.66"></stop></linearGradient></defs></svg>